<svg xmlns="http://www.w3.org/2000/svg"  viewBox="0 0 48 48" width="480px" height="480px"><path fill="#febf10" d="M27.4,24l7.72-7.386c0,0,4.745,2.374,7.011,4.157s4.05,2.873,1.894,4.731s-8.297,4.392-9.421,5.334 C33.554,30.126,28.46,25.712,27.4,24z"/><path fill="#ef4823" d="M5.625,45.73l7.857-6.804L27.4,23.829l7.365,6.953c0,0-9.245,7.208-14.57,10.305 c-5.325,3.098-11.122,5.575-12.467,5.38S5.625,45.73,5.625,45.73z"/><path fill="#71c598" d="M27.685,24.424L5.103,2.446c0,0,0.823-1.407,2.678-0.614S19.04,8.231,21.234,9.366 s14.051,7.332,14.051,7.332L27.685,24.424z"/><path fill="#16b7b8" d="M5.413,45.522c-0.668-1.043-0.614-7.09-0.546-8.135c0.068-1.045,0.607-12.6,0.351-18.865 C4.961,12.257,4.226,7.109,4.151,5.609c-0.075-1.5,0.631-3.293,0.631-3.293L27.4,23.829L14.627,37.683 C14.627,37.683,8.429,43.761,5.413,45.522z"/><path d="M44.858,22.328c-0.711-0.891-1.856-1.541-2.771-2.205c-1.024-0.743-2.067-1.464-3.156-2.109 c-2.208-1.308-4.643-2.184-6.903-3.404c-2.309-1.247-4.564-2.589-6.896-3.793c-3.206-1.655-6.365-3.362-9.493-5.159 c-2.358-1.355-4.681-2.828-7.112-4.052C7.099,0.886,5.214,1.032,4.34,2.515C3.251,4.363,3.651,6.878,3.983,8.871 c0.198,1.191,0.433,2.378,0.489,3.586c0.138,5.253,0.442,10.511,0.41,15.767c-0.017,2.784-0.272,5.546-0.461,8.321 c-0.182,2.665-0.335,5.466,0.202,8.103c0.444,2.184,2.45,2.587,4.368,2.124c2.351-0.568,4.666-1.73,6.813-2.816 c4.72-2.386,9.203-5.297,13.509-8.36c2.157-1.534,4.215-3.198,6.359-4.75c2.129-1.542,4.492-2.507,6.803-3.723 c0.956-0.503,2.001-1.09,2.532-2.077C45.475,24.174,45.492,23.122,44.858,22.328z M43.462,25.339 c-0.874,0.734-2.016,1.199-3.039,1.683c-1.106,0.524-2.222,1.031-3.278,1.651c-2.075,1.219-3.916,2.803-5.839,4.239 c-4.001,2.987-8.168,5.774-12.493,8.271c-2.077,1.199-4.205,2.317-6.408,3.268c-1.088,0.469-2.204,0.94-3.344,1.267 c-0.81,0.232-1.85,0.443-2.635,0.023c-1.032-0.552-0.985-2.195-1.064-3.2c-0.103-1.301-0.104-2.608-0.055-3.911 c0.097-2.582,0.392-5.151,0.51-7.731c0.226-4.942-0.07-9.912-0.235-14.852c-0.04-1.196-0.078-2.393-0.109-3.589 c-0.103-2.237-0.81-4.41-0.82-6.653C4.647,4.881,4.729,3.741,5.249,2.947c0.295-0.45,0.753-0.712,1.287-0.767 C6.805,2.153,7.08,2.177,7.343,2.232c0.124,0.026,0.244,0.065,0.365,0.101c0.043,0.013,0.106,0.038,0.14,0.052 c0.723,0.326,1.409,0.759,2.096,1.151c1.284,0.732,2.562,1.473,3.843,2.211c2.541,1.464,5.073,2.956,7.679,4.302 c2.21,1.142,4.425,2.27,6.593,3.491c2.124,1.196,4.236,2.423,6.453,3.44c1.052,0.482,2.123,0.901,3.14,1.457 c1.044,0.571,2.044,1.219,3.02,1.9c0.984,0.687,1.978,1.385,2.912,2.14c0.442,0.357,0.812,0.764,0.766,1.366 C44.303,24.453,43.917,24.957,43.462,25.339z"/><path d="M6.076,45.958c4.111-3.194,7.994-6.677,11.497-10.532c3.612-3.975,7.158-7.993,10.92-11.83 c2.115-2.157,4.272-4.274,6.464-6.353c0.468-0.444-0.24-1.15-0.707-0.707c-3.895,3.692-7.672,7.508-11.318,11.447 c-3.63,3.921-7.034,8.04-10.96,11.677c-2.117,1.961-4.325,3.82-6.603,5.591C4.862,45.645,5.574,46.348,6.076,45.958L6.076,45.958z"/><path d="M4.864,2.799c7.689,7.596,15.432,15.136,23.128,22.725c2.05,2.021,4.043,4.182,6.521,5.689 c0.551,0.335,1.054-0.529,0.505-0.863c-2.212-1.346-4-3.245-5.829-5.05c-1.878-1.853-3.759-3.703-5.642-5.551 c-3.869-3.799-7.744-7.592-11.613-11.392C9.81,6.271,7.688,4.184,5.571,2.092C5.113,1.639,4.405,2.346,4.864,2.799L4.864,2.799z"/></svg>