<svg width="189" height="24" viewBox="0 0 189 24" fill="none" xmlns="http://www.w3.org/2000/svg">
<mask id="mask0_1758_3643" style="mask-type:alpha" maskUnits="userSpaceOnUse" x="0" y="0" width="24" height="24">
<rect width="24" height="24" fill="#D9D9D9"/>
</mask>
<g mask="url(#mask0_1758_3643)">
<path d="M4 20C3.45 20 2.97917 19.8042 2.5875 19.4125C2.19583 19.0208 2 18.55 2 18V6C2 5.45 2.19583 4.97917 2.5875 4.5875C2.97917 4.19583 3.45 4 4 4H20C20.55 4 21.0208 4.19583 21.4125 4.5875C21.8042 4.97917 22 5.45 22 6V18C22 18.55 21.8042 19.0208 21.4125 19.4125C21.0208 19.8042 20.55 20 20 20H4ZM12 13L4 8V18H20V8L12 13ZM12 11L20 6H4L12 11ZM4 8V6V18V8Z" fill="#1C1B1F"/>
</g>
<path d="M45.4297 13.3594V3H46.8828V15H45.5547L45.4297 13.3594ZM39.7422 10.8672V10.7031C39.7422 10.0573 39.8203 9.47135 39.9766 8.94531C40.138 8.41406 40.3646 7.95833 40.6562 7.57812C40.9531 7.19792 41.3047 6.90625 41.7109 6.70312C42.1224 6.49479 42.5807 6.39062 43.0859 6.39062C43.6172 6.39062 44.0807 6.48438 44.4766 6.67188C44.8776 6.85417 45.2161 7.1224 45.4922 7.47656C45.7734 7.82552 45.9948 8.2474 46.1562 8.74219C46.3177 9.23698 46.4297 9.79688 46.4922 10.4219V11.1406C46.4349 11.7604 46.3229 12.3177 46.1562 12.8125C45.9948 13.3073 45.7734 13.7292 45.4922 14.0781C45.2161 14.4271 44.8776 14.6953 44.4766 14.8828C44.0755 15.0651 43.6068 15.1562 43.0703 15.1562C42.5755 15.1562 42.1224 15.0495 41.7109 14.8359C41.3047 14.6224 40.9531 14.3229 40.6562 13.9375C40.3646 13.5521 40.138 13.099 39.9766 12.5781C39.8203 12.0521 39.7422 11.4818 39.7422 10.8672ZM41.1953 10.7031V10.8672C41.1953 11.2891 41.237 11.6849 41.3203 12.0547C41.4089 12.4245 41.5443 12.75 41.7266 13.0312C41.9089 13.3125 42.1406 13.5339 42.4219 13.6953C42.7031 13.8516 43.0391 13.9297 43.4297 13.9297C43.9089 13.9297 44.3021 13.8281 44.6094 13.625C44.9219 13.4219 45.1719 13.1536 45.3594 12.8203C45.5469 12.487 45.6927 12.125 45.7969 11.7344V9.85156C45.7344 9.5651 45.6432 9.28906 45.5234 9.02344C45.4089 8.7526 45.2578 8.51302 45.0703 8.30469C44.888 8.09115 44.6615 7.92188 44.3906 7.79688C44.125 7.67188 43.8099 7.60938 43.4453 7.60938C43.0495 7.60938 42.7083 7.69271 42.4219 7.85938C42.1406 8.02083 41.9089 8.24479 41.7266 8.53125C41.5443 8.8125 41.4089 9.14062 41.3203 9.51562C41.237 9.88542 41.1953 10.2812 41.1953 10.7031ZM54.6172 13.5547V9.20312C54.6172 8.86979 54.5495 8.58073 54.4141 8.33594C54.2839 8.08594 54.0859 7.89323 53.8203 7.75781C53.5547 7.6224 53.2266 7.55469 52.8359 7.55469C52.4714 7.55469 52.151 7.61719 51.875 7.74219C51.6042 7.86719 51.3906 8.03125 51.2344 8.23438C51.0833 8.4375 51.0078 8.65625 51.0078 8.89062H49.5625C49.5625 8.58854 49.6406 8.28906 49.7969 7.99219C49.9531 7.69531 50.1771 7.42708 50.4688 7.1875C50.7656 6.94271 51.1198 6.75 51.5312 6.60938C51.9479 6.46354 52.4115 6.39062 52.9219 6.39062C53.5365 6.39062 54.0781 6.49479 54.5469 6.70312C55.0208 6.91146 55.3906 7.22656 55.6562 7.64844C55.9271 8.0651 56.0625 8.58854 56.0625 9.21875V13.1562C56.0625 13.4375 56.0859 13.737 56.1328 14.0547C56.1849 14.3724 56.2604 14.6458 56.3594 14.875V15H54.8516C54.7786 14.8333 54.7214 14.612 54.6797 14.3359C54.638 14.0547 54.6172 13.7943 54.6172 13.5547ZM54.8672 9.875L54.8828 10.8906H53.4219C53.0104 10.8906 52.6432 10.9245 52.3203 10.9922C51.9974 11.0547 51.7266 11.151 51.5078 11.2812C51.2891 11.4115 51.1224 11.5755 51.0078 11.7734C50.8932 11.9661 50.8359 12.1927 50.8359 12.4531C50.8359 12.7188 50.8958 12.9609 51.0156 13.1797C51.1354 13.3984 51.3151 13.5729 51.5547 13.7031C51.7995 13.8281 52.099 13.8906 52.4531 13.8906C52.8958 13.8906 53.2865 13.7969 53.625 13.6094C53.9635 13.4219 54.2318 13.1927 54.4297 12.9219C54.6328 12.651 54.7422 12.388 54.7578 12.1328L55.375 12.8281C55.3385 13.0469 55.2396 13.2891 55.0781 13.5547C54.9167 13.8203 54.7005 14.0755 54.4297 14.3203C54.1641 14.5599 53.8464 14.7604 53.4766 14.9219C53.112 15.0781 52.7005 15.1562 52.2422 15.1562C51.6693 15.1562 51.1667 15.0443 50.7344 14.8203C50.3073 14.5964 49.974 14.2969 49.7344 13.9219C49.5 13.5417 49.3828 13.1172 49.3828 12.6484C49.3828 12.1953 49.4714 11.7969 49.6484 11.4531C49.8255 11.1042 50.0807 10.8151 50.4141 10.5859C50.7474 10.3516 51.1484 10.1745 51.6172 10.0547C52.0859 9.9349 52.6094 9.875 53.1875 9.875H54.8672ZM61.0859 14.125L63.4375 6.54688H64.9844L61.5938 16.3047C61.5156 16.513 61.4115 16.737 61.2812 16.9766C61.1562 17.2214 60.9948 17.4531 60.7969 17.6719C60.599 17.8906 60.3594 18.0677 60.0781 18.2031C59.8021 18.3438 59.4714 18.4141 59.0859 18.4141C58.9714 18.4141 58.8255 18.3984 58.6484 18.3672C58.4714 18.3359 58.3464 18.3099 58.2734 18.2891L58.2656 17.1172C58.3073 17.1224 58.3724 17.1276 58.4609 17.1328C58.5547 17.1432 58.6198 17.1484 58.6562 17.1484C58.9844 17.1484 59.263 17.1042 59.4922 17.0156C59.7214 16.9323 59.9141 16.7891 60.0703 16.5859C60.2318 16.388 60.3698 16.1146 60.4844 15.7656L61.0859 14.125ZM59.3594 6.54688L61.5547 13.1094L61.9297 14.6328L60.8906 15.1641L57.7812 6.54688H59.3594ZM71.7109 12.7578C71.7109 12.5495 71.6641 12.3568 71.5703 12.1797C71.4818 11.9974 71.2969 11.8333 71.0156 11.6875C70.7396 11.5365 70.3229 11.4062 69.7656 11.2969C69.2969 11.1979 68.8724 11.0807 68.4922 10.9453C68.1172 10.8099 67.7969 10.6458 67.5312 10.4531C67.2708 10.2604 67.0703 10.0339 66.9297 9.77344C66.7891 9.51302 66.7188 9.20833 66.7188 8.85938C66.7188 8.52604 66.7917 8.21094 66.9375 7.91406C67.0885 7.61719 67.2995 7.35417 67.5703 7.125C67.8464 6.89583 68.1771 6.71615 68.5625 6.58594C68.9479 6.45573 69.3776 6.39062 69.8516 6.39062C70.5286 6.39062 71.1068 6.51042 71.5859 6.75C72.0651 6.98958 72.4323 7.3099 72.6875 7.71094C72.9427 8.10677 73.0703 8.54688 73.0703 9.03125H71.625C71.625 8.79688 71.5547 8.57031 71.4141 8.35156C71.2786 8.1276 71.0781 7.94271 70.8125 7.79688C70.5521 7.65104 70.2318 7.57812 69.8516 7.57812C69.4505 7.57812 69.125 7.64062 68.875 7.76562C68.6302 7.88542 68.4505 8.03906 68.3359 8.22656C68.2266 8.41406 68.1719 8.61198 68.1719 8.82031C68.1719 8.97656 68.1979 9.11719 68.25 9.24219C68.3073 9.36198 68.4062 9.47396 68.5469 9.57812C68.6875 9.67708 68.8854 9.77083 69.1406 9.85938C69.3958 9.94792 69.7214 10.0365 70.1172 10.125C70.8099 10.2812 71.3802 10.4688 71.8281 10.6875C72.276 10.9062 72.6094 11.1745 72.8281 11.4922C73.0469 11.8099 73.1562 12.1953 73.1562 12.6484C73.1562 13.0182 73.0781 13.3568 72.9219 13.6641C72.7708 13.9714 72.5495 14.237 72.2578 14.4609C71.9714 14.6797 71.6276 14.8516 71.2266 14.9766C70.8307 15.0964 70.3854 15.1562 69.8906 15.1562C69.1458 15.1562 68.5156 15.0234 68 14.7578C67.4844 14.4922 67.0938 14.1484 66.8281 13.7266C66.5625 13.3047 66.4297 12.8594 66.4297 12.3906H67.8828C67.9036 12.7865 68.0182 13.1016 68.2266 13.3359C68.4349 13.5651 68.6901 13.7292 68.9922 13.8281C69.2943 13.9219 69.5938 13.9688 69.8906 13.9688C70.2865 13.9688 70.6172 13.9167 70.8828 13.8125C71.1536 13.7083 71.3594 13.5651 71.5 13.3828C71.6406 13.2005 71.7109 12.9922 71.7109 12.7578ZM79.0938 6.54688V7.65625H74.5234V6.54688H79.0938ZM76.0703 4.49219H77.5156V12.9062C77.5156 13.1927 77.5599 13.4089 77.6484 13.5547C77.737 13.7005 77.8516 13.7969 77.9922 13.8438C78.1328 13.8906 78.2839 13.9141 78.4453 13.9141C78.5651 13.9141 78.6901 13.9036 78.8203 13.8828C78.9557 13.8568 79.0573 13.8359 79.125 13.8203L79.1328 15C79.0182 15.0365 78.8672 15.0703 78.6797 15.1016C78.4974 15.138 78.276 15.1562 78.0156 15.1562C77.6615 15.1562 77.3359 15.0859 77.0391 14.9453C76.7422 14.8047 76.5052 14.5703 76.3281 14.2422C76.1562 13.9089 76.0703 13.4609 76.0703 12.8984V4.49219ZM80.75 10.8672V10.6875C80.75 10.0781 80.8385 9.51302 81.0156 8.99219C81.1927 8.46615 81.4479 8.01042 81.7812 7.625C82.1146 7.23438 82.5182 6.93229 82.9922 6.71875C83.4661 6.5 83.9974 6.39062 84.5859 6.39062C85.1797 6.39062 85.7135 6.5 86.1875 6.71875C86.6667 6.93229 87.0729 7.23438 87.4062 7.625C87.7448 8.01042 88.0026 8.46615 88.1797 8.99219C88.3568 9.51302 88.4453 10.0781 88.4453 10.6875V10.8672C88.4453 11.4766 88.3568 12.0417 88.1797 12.5625C88.0026 13.0833 87.7448 13.5391 87.4062 13.9297C87.0729 14.3151 86.6693 14.6172 86.1953 14.8359C85.7266 15.0495 85.1953 15.1562 84.6016 15.1562C84.0078 15.1562 83.474 15.0495 83 14.8359C82.526 14.6172 82.1198 14.3151 81.7812 13.9297C81.4479 13.5391 81.1927 13.0833 81.0156 12.5625C80.8385 12.0417 80.75 11.4766 80.75 10.8672ZM82.1953 10.6875V10.8672C82.1953 11.2891 82.2448 11.6875 82.3438 12.0625C82.4427 12.4323 82.5911 12.7604 82.7891 13.0469C82.9922 13.3333 83.2448 13.5599 83.5469 13.7266C83.849 13.888 84.2005 13.9688 84.6016 13.9688C84.9974 13.9688 85.3438 13.888 85.6406 13.7266C85.9427 13.5599 86.1927 13.3333 86.3906 13.0469C86.5885 12.7604 86.737 12.4323 86.8359 12.0625C86.9401 11.6875 86.9922 11.2891 86.9922 10.8672V10.6875C86.9922 10.2708 86.9401 9.8776 86.8359 9.50781C86.737 9.13281 86.5859 8.80208 86.3828 8.51562C86.1849 8.22396 85.9349 7.99479 85.6328 7.82812C85.3359 7.66146 84.987 7.57812 84.5859 7.57812C84.1901 7.57812 83.8411 7.66146 83.5391 7.82812C83.2422 7.99479 82.9922 8.22396 82.7891 8.51562C82.5911 8.80208 82.4427 9.13281 82.3438 9.50781C82.2448 9.8776 82.1953 10.2708 82.1953 10.6875ZM92.2031 7.875V15H90.7578V6.54688H92.1641L92.2031 7.875ZM94.8438 6.5L94.8359 7.84375C94.7161 7.81771 94.6016 7.80208 94.4922 7.79688C94.388 7.78646 94.2682 7.78125 94.1328 7.78125C93.7995 7.78125 93.5052 7.83333 93.25 7.9375C92.9948 8.04167 92.7786 8.1875 92.6016 8.375C92.4245 8.5625 92.2839 8.78646 92.1797 9.04688C92.0807 9.30208 92.0156 9.58333 91.9844 9.89062L91.5781 10.125C91.5781 9.61458 91.6276 9.13542 91.7266 8.6875C91.8307 8.23958 91.9896 7.84375 92.2031 7.5C92.4167 7.15104 92.6875 6.88021 93.0156 6.6875C93.349 6.48958 93.7448 6.39062 94.2031 6.39062C94.3073 6.39062 94.4271 6.40365 94.5625 6.42969C94.6979 6.45052 94.7917 6.47396 94.8438 6.5ZM99.1953 14.125L101.547 6.54688H103.094L99.7031 16.3047C99.625 16.513 99.5208 16.737 99.3906 16.9766C99.2656 17.2214 99.1042 17.4531 98.9062 17.6719C98.7083 17.8906 98.4688 18.0677 98.1875 18.2031C97.9115 18.3438 97.5807 18.4141 97.1953 18.4141C97.0807 18.4141 96.9349 18.3984 96.7578 18.3672C96.5807 18.3359 96.4557 18.3099 96.3828 18.2891L96.375 17.1172C96.4167 17.1224 96.4818 17.1276 96.5703 17.1328C96.6641 17.1432 96.7292 17.1484 96.7656 17.1484C97.0938 17.1484 97.3724 17.1042 97.6016 17.0156C97.8307 16.9323 98.0234 16.7891 98.1797 16.5859C98.3411 16.388 98.4792 16.1146 98.5938 15.7656L99.1953 14.125ZM97.4688 6.54688L99.6641 13.1094L100.039 14.6328L99 15.1641L95.8906 6.54688H97.4688ZM117.359 11.0703C117.339 11.5495 117.266 12.0312 117.141 12.5156C117.016 12.9948 116.828 13.4349 116.578 13.8359C116.328 14.237 116.003 14.5599 115.602 14.8047C115.206 15.0443 114.727 15.1641 114.164 15.1641C113.805 15.1641 113.49 15.1016 113.219 14.9766C112.953 14.8464 112.734 14.6615 112.562 14.4219C112.396 14.1823 112.279 13.8932 112.211 13.5547C112.148 13.2161 112.138 12.8385 112.18 12.4219L112.578 8.09375H113.727L113.328 12.4219C113.297 12.8021 113.305 13.112 113.352 13.3516C113.404 13.5911 113.482 13.776 113.586 13.9062C113.69 14.0312 113.807 14.1172 113.938 14.1641C114.073 14.2109 114.203 14.2344 114.328 14.2344C114.641 14.2344 114.919 14.1536 115.164 13.9922C115.409 13.8255 115.615 13.599 115.781 13.3125C115.953 13.0208 116.086 12.6849 116.18 12.3047C116.273 11.9193 116.331 11.5078 116.352 11.0703C116.388 10.2943 116.352 9.58073 116.242 8.92969C116.138 8.27865 115.958 7.70052 115.703 7.19531C115.453 6.6901 115.125 6.26302 114.719 5.91406C114.312 5.5651 113.828 5.29948 113.266 5.11719C112.703 4.9349 112.06 4.84375 111.336 4.84375C110.68 4.84375 110.073 4.94531 109.516 5.14844C108.964 5.34635 108.466 5.63281 108.023 6.00781C107.586 6.38281 107.208 6.83333 106.891 7.35938C106.578 7.88542 106.331 8.47917 106.148 9.14062C105.971 9.79688 105.867 10.5052 105.836 11.2656C105.799 12.0469 105.841 12.7656 105.961 13.4219C106.081 14.0729 106.273 14.6536 106.539 15.1641C106.81 15.6797 107.151 16.1146 107.562 16.4688C107.974 16.8281 108.451 17.099 108.992 17.2812C109.534 17.4688 110.138 17.5625 110.805 17.5625C111.263 17.5625 111.727 17.5078 112.195 17.3984C112.669 17.2891 113.065 17.1406 113.383 16.9531L113.68 17.8438C113.315 18.0781 112.859 18.2526 112.312 18.3672C111.771 18.4818 111.258 18.5391 110.773 18.5391C109.982 18.5391 109.258 18.4297 108.602 18.2109C107.951 17.9974 107.372 17.6823 106.867 17.2656C106.367 16.8542 105.951 16.3516 105.617 15.7578C105.284 15.1693 105.039 14.4974 104.883 13.7422C104.727 12.987 104.667 12.1615 104.703 11.2656C104.74 10.4115 104.867 9.60677 105.086 8.85156C105.31 8.09635 105.615 7.41146 106 6.79688C106.385 6.18229 106.844 5.65365 107.375 5.21094C107.911 4.76302 108.513 4.41927 109.18 4.17969C109.852 3.9401 110.581 3.82031 111.367 3.82031C112.169 3.82031 112.896 3.92969 113.547 4.14844C114.198 4.36719 114.768 4.68229 115.258 5.09375C115.753 5.50521 116.161 6.00781 116.484 6.60156C116.807 7.19531 117.042 7.86719 117.188 8.61719C117.339 9.36719 117.396 10.1849 117.359 11.0703ZM109.336 11.7344C109.299 12.099 109.299 12.4245 109.336 12.7109C109.372 12.9974 109.443 13.2396 109.547 13.4375C109.651 13.6354 109.786 13.7865 109.953 13.8906C110.125 13.9896 110.326 14.0391 110.555 14.0391C110.706 14.0391 110.865 14.0026 111.031 13.9297C111.198 13.8516 111.362 13.7318 111.523 13.5703C111.685 13.4089 111.836 13.1979 111.977 12.9375C112.117 12.6771 112.234 12.3646 112.328 12L112.844 12.5625C112.724 12.9896 112.568 13.3646 112.375 13.6875C112.188 14.0104 111.977 14.2812 111.742 14.5C111.508 14.7188 111.258 14.8854 110.992 15C110.732 15.1094 110.466 15.1641 110.195 15.1641C109.815 15.1641 109.482 15.0833 109.195 14.9219C108.909 14.7552 108.677 14.5208 108.5 14.2188C108.323 13.9167 108.198 13.5573 108.125 13.1406C108.057 12.7188 108.047 12.25 108.094 11.7344C108.141 11.1875 108.237 10.6823 108.383 10.2188C108.529 9.75521 108.708 9.34115 108.922 8.97656C109.141 8.61198 109.385 8.30208 109.656 8.04688C109.932 7.79167 110.224 7.59896 110.531 7.46875C110.839 7.33333 111.154 7.26562 111.477 7.26562C112.039 7.26562 112.482 7.34896 112.805 7.51562C113.128 7.67708 113.435 7.86979 113.727 8.09375L113.062 8.86719C112.911 8.72135 112.714 8.58594 112.469 8.46094C112.224 8.33594 111.935 8.27344 111.602 8.27344C111.315 8.27344 111.047 8.34635 110.797 8.49219C110.547 8.63802 110.32 8.85677 110.117 9.14844C109.919 9.4401 109.753 9.80208 109.617 10.2344C109.482 10.6615 109.388 11.1615 109.336 11.7344ZM121.211 8.22656V15H119.758V6.54688H121.133L121.211 8.22656ZM120.914 10.4531L120.242 10.4297C120.247 9.85156 120.323 9.31771 120.469 8.82812C120.615 8.33333 120.831 7.90365 121.117 7.53906C121.404 7.17448 121.76 6.89323 122.188 6.69531C122.615 6.49219 123.109 6.39062 123.672 6.39062C124.068 6.39062 124.432 6.44792 124.766 6.5625C125.099 6.67188 125.388 6.84635 125.633 7.08594C125.878 7.32552 126.068 7.63281 126.203 8.00781C126.339 8.38281 126.406 8.83594 126.406 9.36719V15H124.961V9.4375C124.961 8.99479 124.885 8.64062 124.734 8.375C124.589 8.10938 124.38 7.91667 124.109 7.79688C123.839 7.67188 123.521 7.60938 123.156 7.60938C122.729 7.60938 122.372 7.6849 122.086 7.83594C121.799 7.98698 121.57 8.19531 121.398 8.46094C121.227 8.72656 121.102 9.03125 121.023 9.375C120.951 9.71354 120.914 10.0729 120.914 10.4531ZM126.391 9.65625L125.422 9.95312C125.427 9.48958 125.503 9.04427 125.648 8.61719C125.799 8.1901 126.016 7.8099 126.297 7.47656C126.583 7.14323 126.935 6.88021 127.352 6.6875C127.768 6.48958 128.245 6.39062 128.781 6.39062C129.234 6.39062 129.635 6.45052 129.984 6.57031C130.339 6.6901 130.635 6.875 130.875 7.125C131.12 7.36979 131.305 7.6849 131.43 8.07031C131.555 8.45573 131.617 8.91406 131.617 9.44531V15H130.164V9.42969C130.164 8.95573 130.089 8.58854 129.938 8.32812C129.792 8.0625 129.583 7.8776 129.312 7.77344C129.047 7.66406 128.729 7.60938 128.359 7.60938C128.042 7.60938 127.76 7.66406 127.516 7.77344C127.271 7.88281 127.065 8.03385 126.898 8.22656C126.732 8.41406 126.604 8.63021 126.516 8.875C126.432 9.11979 126.391 9.38021 126.391 9.65625ZM139.289 13.5547V9.20312C139.289 8.86979 139.221 8.58073 139.086 8.33594C138.956 8.08594 138.758 7.89323 138.492 7.75781C138.227 7.6224 137.898 7.55469 137.508 7.55469C137.143 7.55469 136.823 7.61719 136.547 7.74219C136.276 7.86719 136.062 8.03125 135.906 8.23438C135.755 8.4375 135.68 8.65625 135.68 8.89062H134.234C134.234 8.58854 134.312 8.28906 134.469 7.99219C134.625 7.69531 134.849 7.42708 135.141 7.1875C135.438 6.94271 135.792 6.75 136.203 6.60938C136.62 6.46354 137.083 6.39062 137.594 6.39062C138.208 6.39062 138.75 6.49479 139.219 6.70312C139.693 6.91146 140.062 7.22656 140.328 7.64844C140.599 8.0651 140.734 8.58854 140.734 9.21875V13.1562C140.734 13.4375 140.758 13.737 140.805 14.0547C140.857 14.3724 140.932 14.6458 141.031 14.875V15H139.523C139.451 14.8333 139.393 14.612 139.352 14.3359C139.31 14.0547 139.289 13.7943 139.289 13.5547ZM139.539 9.875L139.555 10.8906H138.094C137.682 10.8906 137.315 10.9245 136.992 10.9922C136.669 11.0547 136.398 11.151 136.18 11.2812C135.961 11.4115 135.794 11.5755 135.68 11.7734C135.565 11.9661 135.508 12.1927 135.508 12.4531C135.508 12.7188 135.568 12.9609 135.688 13.1797C135.807 13.3984 135.987 13.5729 136.227 13.7031C136.471 13.8281 136.771 13.8906 137.125 13.8906C137.568 13.8906 137.958 13.7969 138.297 13.6094C138.635 13.4219 138.904 13.1927 139.102 12.9219C139.305 12.651 139.414 12.388 139.43 12.1328L140.047 12.8281C140.01 13.0469 139.911 13.2891 139.75 13.5547C139.589 13.8203 139.372 14.0755 139.102 14.3203C138.836 14.5599 138.518 14.7604 138.148 14.9219C137.784 15.0781 137.372 15.1562 136.914 15.1562C136.341 15.1562 135.839 15.0443 135.406 14.8203C134.979 14.5964 134.646 14.2969 134.406 13.9219C134.172 13.5417 134.055 13.1172 134.055 12.6484C134.055 12.1953 134.143 11.7969 134.32 11.4531C134.497 11.1042 134.753 10.8151 135.086 10.5859C135.419 10.3516 135.82 10.1745 136.289 10.0547C136.758 9.9349 137.281 9.875 137.859 9.875H139.539ZM145.078 6.54688V15H143.625V6.54688H145.078ZM143.516 4.30469C143.516 4.07031 143.586 3.8724 143.727 3.71094C143.872 3.54948 144.086 3.46875 144.367 3.46875C144.643 3.46875 144.854 3.54948 145 3.71094C145.151 3.8724 145.227 4.07031 145.227 4.30469C145.227 4.52865 145.151 4.72135 145 4.88281C144.854 5.03906 144.643 5.11719 144.367 5.11719C144.086 5.11719 143.872 5.03906 143.727 4.88281C143.586 4.72135 143.516 4.52865 143.516 4.30469ZM149.469 3V15H148.016V3H149.469ZM152.312 14.2344C152.312 13.9896 152.388 13.7839 152.539 13.6172C152.695 13.4453 152.919 13.3594 153.211 13.3594C153.503 13.3594 153.724 13.4453 153.875 13.6172C154.031 13.7839 154.109 13.9896 154.109 14.2344C154.109 14.474 154.031 14.6771 153.875 14.8438C153.724 15.0104 153.503 15.0938 153.211 15.0938C152.919 15.0938 152.695 15.0104 152.539 14.8438C152.388 14.6771 152.312 14.474 152.312 14.2344ZM160.391 13.9688C160.734 13.9688 161.052 13.8984 161.344 13.7578C161.635 13.6172 161.875 13.4245 162.062 13.1797C162.25 12.9297 162.357 12.6458 162.383 12.3281H163.758C163.732 12.8281 163.562 13.2943 163.25 13.7266C162.943 14.1536 162.539 14.5 162.039 14.7656C161.539 15.026 160.99 15.1562 160.391 15.1562C159.755 15.1562 159.201 15.0443 158.727 14.8203C158.258 14.5964 157.867 14.2891 157.555 13.8984C157.247 13.5078 157.016 13.0599 156.859 12.5547C156.708 12.0443 156.633 11.5052 156.633 10.9375V10.6094C156.633 10.0417 156.708 9.50521 156.859 9C157.016 8.48958 157.247 8.03906 157.555 7.64844C157.867 7.25781 158.258 6.95052 158.727 6.72656C159.201 6.5026 159.755 6.39062 160.391 6.39062C161.052 6.39062 161.63 6.52604 162.125 6.79688C162.62 7.0625 163.008 7.42708 163.289 7.89062C163.576 8.34896 163.732 8.86979 163.758 9.45312H162.383C162.357 9.10417 162.258 8.78906 162.086 8.50781C161.919 8.22656 161.69 8.0026 161.398 7.83594C161.112 7.66406 160.776 7.57812 160.391 7.57812C159.948 7.57812 159.576 7.66667 159.273 7.84375C158.977 8.01562 158.74 8.25 158.562 8.54688C158.391 8.83854 158.266 9.16406 158.188 9.52344C158.115 9.8776 158.078 10.2396 158.078 10.6094V10.9375C158.078 11.3073 158.115 11.6719 158.188 12.0312C158.26 12.3906 158.383 12.7161 158.555 13.0078C158.732 13.2995 158.969 13.5339 159.266 13.7109C159.568 13.8828 159.943 13.9688 160.391 13.9688ZM165.5 10.8672V10.6875C165.5 10.0781 165.589 9.51302 165.766 8.99219C165.943 8.46615 166.198 8.01042 166.531 7.625C166.865 7.23438 167.268 6.93229 167.742 6.71875C168.216 6.5 168.747 6.39062 169.336 6.39062C169.93 6.39062 170.464 6.5 170.938 6.71875C171.417 6.93229 171.823 7.23438 172.156 7.625C172.495 8.01042 172.753 8.46615 172.93 8.99219C173.107 9.51302 173.195 10.0781 173.195 10.6875V10.8672C173.195 11.4766 173.107 12.0417 172.93 12.5625C172.753 13.0833 172.495 13.5391 172.156 13.9297C171.823 14.3151 171.419 14.6172 170.945 14.8359C170.477 15.0495 169.945 15.1562 169.352 15.1562C168.758 15.1562 168.224 15.0495 167.75 14.8359C167.276 14.6172 166.87 14.3151 166.531 13.9297C166.198 13.5391 165.943 13.0833 165.766 12.5625C165.589 12.0417 165.5 11.4766 165.5 10.8672ZM166.945 10.6875V10.8672C166.945 11.2891 166.995 11.6875 167.094 12.0625C167.193 12.4323 167.341 12.7604 167.539 13.0469C167.742 13.3333 167.995 13.5599 168.297 13.7266C168.599 13.888 168.951 13.9688 169.352 13.9688C169.747 13.9688 170.094 13.888 170.391 13.7266C170.693 13.5599 170.943 13.3333 171.141 13.0469C171.339 12.7604 171.487 12.4323 171.586 12.0625C171.69 11.6875 171.742 11.2891 171.742 10.8672V10.6875C171.742 10.2708 171.69 9.8776 171.586 9.50781C171.487 9.13281 171.336 8.80208 171.133 8.51562C170.935 8.22396 170.685 7.99479 170.383 7.82812C170.086 7.66146 169.737 7.57812 169.336 7.57812C168.94 7.57812 168.591 7.66146 168.289 7.82812C167.992 7.99479 167.742 8.22396 167.539 8.51562C167.341 8.80208 167.193 9.13281 167.094 9.50781C166.995 9.8776 166.945 10.2708 166.945 10.6875ZM176.945 8.22656V15H175.492V6.54688H176.867L176.945 8.22656ZM176.648 10.4531L175.977 10.4297C175.982 9.85156 176.057 9.31771 176.203 8.82812C176.349 8.33333 176.565 7.90365 176.852 7.53906C177.138 7.17448 177.495 6.89323 177.922 6.69531C178.349 6.49219 178.844 6.39062 179.406 6.39062C179.802 6.39062 180.167 6.44792 180.5 6.5625C180.833 6.67188 181.122 6.84635 181.367 7.08594C181.612 7.32552 181.802 7.63281 181.938 8.00781C182.073 8.38281 182.141 8.83594 182.141 9.36719V15H180.695V9.4375C180.695 8.99479 180.62 8.64062 180.469 8.375C180.323 8.10938 180.115 7.91667 179.844 7.79688C179.573 7.67188 179.255 7.60938 178.891 7.60938C178.464 7.60938 178.107 7.6849 177.82 7.83594C177.534 7.98698 177.305 8.19531 177.133 8.46094C176.961 8.72656 176.836 9.03125 176.758 9.375C176.685 9.71354 176.648 10.0729 176.648 10.4531ZM182.125 9.65625L181.156 9.95312C181.161 9.48958 181.237 9.04427 181.383 8.61719C181.534 8.1901 181.75 7.8099 182.031 7.47656C182.318 7.14323 182.669 6.88021 183.086 6.6875C183.503 6.48958 183.979 6.39062 184.516 6.39062C184.969 6.39062 185.37 6.45052 185.719 6.57031C186.073 6.6901 186.37 6.875 186.609 7.125C186.854 7.36979 187.039 7.6849 187.164 8.07031C187.289 8.45573 187.352 8.91406 187.352 9.44531V15H185.898V9.42969C185.898 8.95573 185.823 8.58854 185.672 8.32812C185.526 8.0625 185.318 7.8776 185.047 7.77344C184.781 7.66406 184.464 7.60938 184.094 7.60938C183.776 7.60938 183.495 7.66406 183.25 7.77344C183.005 7.88281 182.799 8.03385 182.633 8.22656C182.466 8.41406 182.339 8.63021 182.25 8.875C182.167 9.11979 182.125 9.38021 182.125 9.65625Z" fill="black"/>
</svg>
